<mxfile host="app.diagrams.net" modified="2022-05-25T11:54:05.393Z" agent="5.0 (X11)" etag="n3wQvbc9kY9y-x50aKb8" version="18.0.3" type="github">
  <diagram id="mo0UgRs39pfBJl3zhVxP" name="Page-1">
    <mxGraphModel dx="2400" dy="1109" grid="1" gridSize="10" guides="1" tooltips="1" connect="1" arrows="1" fold="1" page="1" pageScale="1" pageWidth="850" pageHeight="1100" math="0" shadow="0">
      <root>
        <mxCell id="0" />
        <mxCell id="1" parent="0" />
        <mxCell id="BQx2eCJ182XsFvpQ0JTU-8" value="" style="edgeStyle=orthogonalEdgeStyle;rounded=0;orthogonalLoop=1;jettySize=auto;html=1;fontSize=20;" edge="1" parent="1" source="7cWHdulKK1cfmPvB8S7S-4" target="BQx2eCJ182XsFvpQ0JTU-7">
          <mxGeometry relative="1" as="geometry" />
        </mxCell>
        <mxCell id="7cWHdulKK1cfmPvB8S7S-4" value="&lt;div align=&quot;justify&quot;&gt;tracking unit&lt;br&gt;&lt;/div&gt;" style="text;html=1;align=center;verticalAlign=middle;resizable=0;points=[];autosize=1;strokeColor=none;fillColor=none;fontSize=20;" parent="1" vertex="1">
          <mxGeometry x="15" y="105" width="150" height="30" as="geometry" />
        </mxCell>
        <mxCell id="BQx2eCJ182XsFvpQ0JTU-25" value="" style="edgeStyle=orthogonalEdgeStyle;rounded=0;orthogonalLoop=1;jettySize=auto;html=1;fontSize=20;" edge="1" parent="1" source="BQx2eCJ182XsFvpQ0JTU-2" target="BQx2eCJ182XsFvpQ0JTU-24">
          <mxGeometry relative="1" as="geometry" />
        </mxCell>
        <mxCell id="BQx2eCJ182XsFvpQ0JTU-2" value="&lt;font style=&quot;font-size: 20px;&quot;&gt;图像帧&lt;/font&gt;" style="whiteSpace=wrap;html=1;rounded=1;" vertex="1" parent="1">
          <mxGeometry x="480" y="170" width="120" height="60" as="geometry" />
        </mxCell>
        <mxCell id="BQx2eCJ182XsFvpQ0JTU-13" style="edgeStyle=orthogonalEdgeStyle;rounded=0;orthogonalLoop=1;jettySize=auto;html=1;exitX=1;exitY=0.5;exitDx=0;exitDy=0;entryX=0.5;entryY=1;entryDx=0;entryDy=0;fontSize=20;" edge="1" parent="1" source="BQx2eCJ182XsFvpQ0JTU-4" target="BQx2eCJ182XsFvpQ0JTU-2">
          <mxGeometry relative="1" as="geometry" />
        </mxCell>
        <mxCell id="BQx2eCJ182XsFvpQ0JTU-4" value="&lt;font style=&quot;font-size: 20px;&quot;&gt;位姿&lt;/font&gt;" style="whiteSpace=wrap;html=1;" vertex="1" parent="1">
          <mxGeometry x="260" y="270" width="120" height="60" as="geometry" />
        </mxCell>
        <mxCell id="BQx2eCJ182XsFvpQ0JTU-6" value="&lt;font style=&quot;font-size: 20px;&quot;&gt;filter unit&lt;/font&gt; " style="text;html=1;align=center;verticalAlign=middle;resizable=0;points=[];autosize=1;strokeColor=none;fillColor=none;" vertex="1" parent="1">
          <mxGeometry x="15" y="290" width="110" height="20" as="geometry" />
        </mxCell>
        <mxCell id="BQx2eCJ182XsFvpQ0JTU-12" style="edgeStyle=orthogonalEdgeStyle;rounded=0;orthogonalLoop=1;jettySize=auto;html=1;exitX=1;exitY=0.5;exitDx=0;exitDy=0;fontSize=20;" edge="1" parent="1" source="BQx2eCJ182XsFvpQ0JTU-7" target="BQx2eCJ182XsFvpQ0JTU-2">
          <mxGeometry relative="1" as="geometry" />
        </mxCell>
        <mxCell id="BQx2eCJ182XsFvpQ0JTU-7" value="特征点，描述符，patch, imu 预积分信息" style="whiteSpace=wrap;html=1;fontSize=20;" vertex="1" parent="1">
          <mxGeometry x="260" y="90" width="180" height="60" as="geometry" />
        </mxCell>
        <mxCell id="BQx2eCJ182XsFvpQ0JTU-9" value="" style="edgeStyle=orthogonalEdgeStyle;rounded=0;orthogonalLoop=1;jettySize=auto;html=1;fontSize=20;" edge="1" parent="1">
          <mxGeometry relative="1" as="geometry">
            <mxPoint x="160" y="299.5" as="sourcePoint" />
            <mxPoint x="255" y="299.5" as="targetPoint" />
            <Array as="points">
              <mxPoint x="120" y="300" />
              <mxPoint x="120" y="300" />
            </Array>
          </mxGeometry>
        </mxCell>
        <mxCell id="BQx2eCJ182XsFvpQ0JTU-19" value="" style="edgeStyle=orthogonalEdgeStyle;rounded=0;orthogonalLoop=1;jettySize=auto;html=1;fontSize=20;" edge="1" parent="1" source="BQx2eCJ182XsFvpQ0JTU-16">
          <mxGeometry relative="1" as="geometry">
            <mxPoint x="880" y="320" as="targetPoint" />
          </mxGeometry>
        </mxCell>
        <mxCell id="BQx2eCJ182XsFvpQ0JTU-22" value="" style="edgeStyle=orthogonalEdgeStyle;rounded=0;orthogonalLoop=1;jettySize=auto;html=1;fontSize=20;" edge="1" parent="1" source="BQx2eCJ182XsFvpQ0JTU-16" target="BQx2eCJ182XsFvpQ0JTU-21">
          <mxGeometry relative="1" as="geometry" />
        </mxCell>
        <mxCell id="BQx2eCJ182XsFvpQ0JTU-16" value="&lt;font style=&quot;font-size: 20px;&quot;&gt;关键帧&lt;/font&gt;" style="rhombus;whiteSpace=wrap;html=1;rounded=1;" vertex="1" parent="1">
          <mxGeometry x="840" y="160" width="80" height="80" as="geometry" />
        </mxCell>
        <mxCell id="BQx2eCJ182XsFvpQ0JTU-20" value="是" style="text;html=1;align=center;verticalAlign=middle;resizable=0;points=[];autosize=1;strokeColor=none;fillColor=none;fontSize=20;" vertex="1" parent="1">
          <mxGeometry x="840" y="255" width="40" height="30" as="geometry" />
        </mxCell>
        <mxCell id="BQx2eCJ182XsFvpQ0JTU-30" style="edgeStyle=orthogonalEdgeStyle;rounded=0;orthogonalLoop=1;jettySize=auto;html=1;exitX=0.5;exitY=1;exitDx=0;exitDy=0;entryX=1;entryY=0.5;entryDx=0;entryDy=0;fontSize=20;" edge="1" parent="1" source="BQx2eCJ182XsFvpQ0JTU-21" target="BQx2eCJ182XsFvpQ0JTU-28">
          <mxGeometry relative="1" as="geometry" />
        </mxCell>
        <mxCell id="BQx2eCJ182XsFvpQ0JTU-21" value="&lt;font style=&quot;font-size: 20px;&quot;&gt;更新地图点位姿&lt;/font&gt;" style="whiteSpace=wrap;html=1;rounded=1;" vertex="1" parent="1">
          <mxGeometry x="980" y="170" width="120" height="60" as="geometry" />
        </mxCell>
        <mxCell id="BQx2eCJ182XsFvpQ0JTU-23" value="否" style="text;html=1;align=center;verticalAlign=middle;resizable=0;points=[];autosize=1;strokeColor=none;fillColor=none;fontSize=20;" vertex="1" parent="1">
          <mxGeometry x="930" y="165" width="40" height="30" as="geometry" />
        </mxCell>
        <mxCell id="BQx2eCJ182XsFvpQ0JTU-26" style="edgeStyle=orthogonalEdgeStyle;rounded=0;orthogonalLoop=1;jettySize=auto;html=1;exitX=1;exitY=0.5;exitDx=0;exitDy=0;fontSize=20;" edge="1" parent="1" source="BQx2eCJ182XsFvpQ0JTU-24" target="BQx2eCJ182XsFvpQ0JTU-16">
          <mxGeometry relative="1" as="geometry" />
        </mxCell>
        <mxCell id="BQx2eCJ182XsFvpQ0JTU-24" value="&lt;font style=&quot;font-size: 20px;&quot;&gt;插入地图中&lt;/font&gt;（local map）" style="whiteSpace=wrap;html=1;rounded=1;" vertex="1" parent="1">
          <mxGeometry x="670" y="170" width="120" height="60" as="geometry" />
        </mxCell>
        <mxCell id="BQx2eCJ182XsFvpQ0JTU-29" value="" style="edgeStyle=orthogonalEdgeStyle;rounded=0;orthogonalLoop=1;jettySize=auto;html=1;fontSize=20;" edge="1" parent="1" source="BQx2eCJ182XsFvpQ0JTU-27" target="BQx2eCJ182XsFvpQ0JTU-28">
          <mxGeometry relative="1" as="geometry" />
        </mxCell>
        <mxCell id="BQx2eCJ182XsFvpQ0JTU-27" value="&lt;font style=&quot;font-size: 20px;&quot;&gt;更新地图点位姿，增加新的地图点&lt;/font&gt;" style="whiteSpace=wrap;html=1;rounded=1;" vertex="1" parent="1">
          <mxGeometry x="810" y="320" width="130" height="90" as="geometry" />
        </mxCell>
        <mxCell id="BQx2eCJ182XsFvpQ0JTU-32" value="" style="edgeStyle=orthogonalEdgeStyle;rounded=0;orthogonalLoop=1;jettySize=auto;html=1;fontSize=20;" edge="1" parent="1" source="BQx2eCJ182XsFvpQ0JTU-28" target="BQx2eCJ182XsFvpQ0JTU-31">
          <mxGeometry relative="1" as="geometry" />
        </mxCell>
        <mxCell id="BQx2eCJ182XsFvpQ0JTU-34" value="" style="edgeStyle=orthogonalEdgeStyle;rounded=0;orthogonalLoop=1;jettySize=auto;html=1;fontSize=20;" edge="1" parent="1" source="BQx2eCJ182XsFvpQ0JTU-28" target="BQx2eCJ182XsFvpQ0JTU-33">
          <mxGeometry relative="1" as="geometry" />
        </mxCell>
        <mxCell id="BQx2eCJ182XsFvpQ0JTU-28" value="&lt;font style=&quot;font-size: 20px;&quot;&gt;边缘化局部地图中的关键帧或者一般帧&lt;br&gt;&lt;/font&gt;" style="whiteSpace=wrap;html=1;rounded=1;" vertex="1" parent="1">
          <mxGeometry x="812" y="505" width="125" height="95" as="geometry" />
        </mxCell>
        <mxCell id="BQx2eCJ182XsFvpQ0JTU-38" value="" style="edgeStyle=orthogonalEdgeStyle;rounded=0;orthogonalLoop=1;jettySize=auto;html=1;fontSize=20;" edge="1" parent="1" source="BQx2eCJ182XsFvpQ0JTU-31" target="BQx2eCJ182XsFvpQ0JTU-37">
          <mxGeometry relative="1" as="geometry" />
        </mxCell>
        <mxCell id="BQx2eCJ182XsFvpQ0JTU-31" value="&lt;font style=&quot;font-size: 20px;&quot;&gt;视觉imu紧耦合位姿优化&lt;br&gt;&lt;/font&gt;" style="whiteSpace=wrap;html=1;rounded=1;" vertex="1" parent="1">
          <mxGeometry x="814.5" y="697.5" width="120" height="60" as="geometry" />
        </mxCell>
        <mxCell id="BQx2eCJ182XsFvpQ0JTU-36" value="" style="edgeStyle=orthogonalEdgeStyle;rounded=0;orthogonalLoop=1;jettySize=auto;html=1;fontSize=20;" edge="1" parent="1" source="BQx2eCJ182XsFvpQ0JTU-33" target="BQx2eCJ182XsFvpQ0JTU-35">
          <mxGeometry relative="1" as="geometry" />
        </mxCell>
        <mxCell id="BQx2eCJ182XsFvpQ0JTU-33" value="&lt;font style=&quot;font-size: 20px;&quot;&gt;边缘化的是关键帧&lt;br&gt;&lt;/font&gt;" style="rhombus;whiteSpace=wrap;html=1;rounded=1;" vertex="1" parent="1">
          <mxGeometry x="560" y="492.5" width="170" height="120" as="geometry" />
        </mxCell>
        <mxCell id="BQx2eCJ182XsFvpQ0JTU-47" value="" style="edgeStyle=orthogonalEdgeStyle;rounded=0;orthogonalLoop=1;jettySize=auto;html=1;fontSize=20;" edge="1" parent="1" source="BQx2eCJ182XsFvpQ0JTU-35" target="BQx2eCJ182XsFvpQ0JTU-46">
          <mxGeometry relative="1" as="geometry" />
        </mxCell>
        <mxCell id="BQx2eCJ182XsFvpQ0JTU-35" value="&lt;font style=&quot;font-size: 20px;&quot;&gt;边缘化的关键帧插入全局地图&lt;br&gt;&lt;/font&gt;" style="whiteSpace=wrap;html=1;rounded=1;" vertex="1" parent="1">
          <mxGeometry x="300" y="519.5" width="155" height="67.5" as="geometry" />
        </mxCell>
        <mxCell id="BQx2eCJ182XsFvpQ0JTU-42" value="" style="edgeStyle=orthogonalEdgeStyle;rounded=0;orthogonalLoop=1;jettySize=auto;html=1;fontSize=20;" edge="1" parent="1" source="BQx2eCJ182XsFvpQ0JTU-37" target="BQx2eCJ182XsFvpQ0JTU-41">
          <mxGeometry relative="1" as="geometry" />
        </mxCell>
        <mxCell id="BQx2eCJ182XsFvpQ0JTU-37" value="&lt;font style=&quot;font-size: 20px;&quot;&gt;输出可以在当前帧下可以投影的地图点&lt;br&gt;&lt;/font&gt;" style="whiteSpace=wrap;html=1;rounded=1;" vertex="1" parent="1">
          <mxGeometry x="814.5" y="837.5" width="120" height="102.5" as="geometry" />
        </mxCell>
        <mxCell id="BQx2eCJ182XsFvpQ0JTU-40" style="edgeStyle=orthogonalEdgeStyle;rounded=0;orthogonalLoop=1;jettySize=auto;html=1;exitX=1;exitY=0.5;exitDx=0;exitDy=0;entryX=0;entryY=0.5;entryDx=0;entryDy=0;fontSize=20;" edge="1" parent="1" source="BQx2eCJ182XsFvpQ0JTU-39" target="BQx2eCJ182XsFvpQ0JTU-37">
          <mxGeometry relative="1" as="geometry" />
        </mxCell>
        <mxCell id="BQx2eCJ182XsFvpQ0JTU-39" value="imu预测帧的位姿" style="rounded=1;whiteSpace=wrap;html=1;fontSize=20;" vertex="1" parent="1">
          <mxGeometry x="570" y="859" width="120" height="60" as="geometry" />
        </mxCell>
        <mxCell id="BQx2eCJ182XsFvpQ0JTU-41" value="&lt;font style=&quot;font-size: 20px;&quot;&gt;tracking unit&lt;br&gt;&lt;/font&gt;" style="whiteSpace=wrap;html=1;rounded=1;" vertex="1" parent="1">
          <mxGeometry x="1014.5" y="858.75" width="120" height="60" as="geometry" />
        </mxCell>
        <mxCell id="BQx2eCJ182XsFvpQ0JTU-45" value="" style="edgeStyle=orthogonalEdgeStyle;rounded=0;orthogonalLoop=1;jettySize=auto;html=1;fontSize=20;entryX=0.5;entryY=1;entryDx=0;entryDy=0;" edge="1" parent="1" source="BQx2eCJ182XsFvpQ0JTU-43" target="BQx2eCJ182XsFvpQ0JTU-7">
          <mxGeometry relative="1" as="geometry">
            <mxPoint x="220" y="215" as="targetPoint" />
          </mxGeometry>
        </mxCell>
        <mxCell id="BQx2eCJ182XsFvpQ0JTU-43" value="IMU unit" style="text;html=1;align=center;verticalAlign=middle;resizable=0;points=[];autosize=1;strokeColor=none;fillColor=none;fontSize=20;" vertex="1" parent="1">
          <mxGeometry x="30" y="200" width="110" height="30" as="geometry" />
        </mxCell>
        <mxCell id="BQx2eCJ182XsFvpQ0JTU-49" value="" style="edgeStyle=orthogonalEdgeStyle;rounded=0;orthogonalLoop=1;jettySize=auto;html=1;fontSize=20;" edge="1" parent="1" source="BQx2eCJ182XsFvpQ0JTU-46" target="BQx2eCJ182XsFvpQ0JTU-48">
          <mxGeometry relative="1" as="geometry" />
        </mxCell>
        <mxCell id="BQx2eCJ182XsFvpQ0JTU-55" value="" style="edgeStyle=orthogonalEdgeStyle;rounded=0;orthogonalLoop=1;jettySize=auto;html=1;fontSize=20;" edge="1" parent="1" source="BQx2eCJ182XsFvpQ0JTU-46" target="BQx2eCJ182XsFvpQ0JTU-54">
          <mxGeometry relative="1" as="geometry" />
        </mxCell>
        <mxCell id="BQx2eCJ182XsFvpQ0JTU-46" value="&lt;font style=&quot;font-size: 20px;&quot;&gt;检查关键帧是否冗余&lt;br&gt;&lt;/font&gt;" style="whiteSpace=wrap;html=1;rounded=1;" vertex="1" parent="1">
          <mxGeometry x="82.5" y="523.25" width="120" height="60" as="geometry" />
        </mxCell>
        <mxCell id="BQx2eCJ182XsFvpQ0JTU-51" value="" style="edgeStyle=orthogonalEdgeStyle;rounded=0;orthogonalLoop=1;jettySize=auto;html=1;fontSize=20;" edge="1" parent="1" source="BQx2eCJ182XsFvpQ0JTU-48" target="BQx2eCJ182XsFvpQ0JTU-50">
          <mxGeometry relative="1" as="geometry" />
        </mxCell>
        <mxCell id="BQx2eCJ182XsFvpQ0JTU-48" value="&lt;font style=&quot;font-size: 20px;&quot;&gt;是&lt;br&gt;&lt;/font&gt;" style="rhombus;whiteSpace=wrap;html=1;rounded=1;" vertex="1" parent="1">
          <mxGeometry x="-97.5" y="513.25" width="80" height="80" as="geometry" />
        </mxCell>
        <mxCell id="BQx2eCJ182XsFvpQ0JTU-50" value="&lt;font style=&quot;font-size: 20px;&quot;&gt;删除冗余的关键帧和地图点&lt;br&gt;&lt;/font&gt;" style="whiteSpace=wrap;html=1;rounded=1;" vertex="1" parent="1">
          <mxGeometry x="-290" y="520.25" width="132.5" height="66.75" as="geometry" />
        </mxCell>
        <mxCell id="BQx2eCJ182XsFvpQ0JTU-57" value="" style="edgeStyle=orthogonalEdgeStyle;rounded=0;orthogonalLoop=1;jettySize=auto;html=1;fontSize=20;" edge="1" parent="1" source="BQx2eCJ182XsFvpQ0JTU-54" target="BQx2eCJ182XsFvpQ0JTU-56">
          <mxGeometry relative="1" as="geometry" />
        </mxCell>
        <mxCell id="BQx2eCJ182XsFvpQ0JTU-54" value="&lt;font style=&quot;font-size: 20px;&quot;&gt;否&lt;br&gt;&lt;/font&gt;" style="rhombus;whiteSpace=wrap;html=1;rounded=1;" vertex="1" parent="1">
          <mxGeometry x="102.5" y="653.25" width="80" height="80" as="geometry" />
        </mxCell>
        <mxCell id="BQx2eCJ182XsFvpQ0JTU-59" value="" style="edgeStyle=orthogonalEdgeStyle;rounded=0;orthogonalLoop=1;jettySize=auto;html=1;fontSize=20;" edge="1" parent="1" source="BQx2eCJ182XsFvpQ0JTU-56" target="BQx2eCJ182XsFvpQ0JTU-58">
          <mxGeometry relative="1" as="geometry" />
        </mxCell>
        <mxCell id="BQx2eCJ182XsFvpQ0JTU-56" value="&lt;font style=&quot;font-size: 20px;&quot;&gt;闭环检测&lt;/font&gt;" style="whiteSpace=wrap;html=1;rounded=1;" vertex="1" parent="1">
          <mxGeometry x="82.5" y="823.25" width="120" height="60" as="geometry" />
        </mxCell>
        <mxCell id="BQx2eCJ182XsFvpQ0JTU-61" value="" style="edgeStyle=orthogonalEdgeStyle;rounded=0;orthogonalLoop=1;jettySize=auto;html=1;fontSize=20;" edge="1" parent="1" source="BQx2eCJ182XsFvpQ0JTU-58" target="BQx2eCJ182XsFvpQ0JTU-60">
          <mxGeometry relative="1" as="geometry" />
        </mxCell>
        <mxCell id="BQx2eCJ182XsFvpQ0JTU-58" value="&lt;font style=&quot;font-size: 20px;&quot;&gt;存在闭环&lt;/font&gt;" style="rhombus;whiteSpace=wrap;html=1;rounded=1;" vertex="1" parent="1">
          <mxGeometry x="102.5" y="953.25" width="80" height="80" as="geometry" />
        </mxCell>
        <mxCell id="BQx2eCJ182XsFvpQ0JTU-60" value="&lt;font style=&quot;font-size: 20px;&quot;&gt;全局位姿优化&lt;br&gt;&lt;/font&gt;" style="whiteSpace=wrap;html=1;rounded=1;" vertex="1" parent="1">
          <mxGeometry x="242.5" y="963.25" width="120" height="60" as="geometry" />
        </mxCell>
      </root>
    </mxGraphModel>
  </diagram>
</mxfile>
